<svg xmlns="http://www.w3.org/2000/svg" id="canvas" viewBox="238.204 302.323 741.722 185.597"><path d="M 278.04,305.75 C 276.54 306.47, 275.68 307.45, 274.84 309.92 C 274.00 312.40, 274.42 314.07, 273.83 318.12 C 273.24 322.18, 272.95 324.87, 271.88 330.21 C 270.80 335.55, 270.08 338.65, 268.43 344.82 C 266.79 350.99, 265.70 354.41, 263.66 361.05 C 261.61 367.70, 260.35 371.31, 258.20 378.07 C 256.06 384.83, 254.90 388.40, 252.93 394.85 C 250.97 401.30, 250.00 404.58, 248.38 410.32 C 246.76 416.06, 246.04 418.80, 244.83 423.55 C 243.61 428.31, 243.03 430.43, 242.31 434.10 C 241.59 437.76, 241.08 439.33, 241.23 441.87 C 241.38 444.40, 242.22 445.44, 243.08 446.77 C 243.93 448.10, 244.60 448.35, 245.52 448.52 C 246.44 448.69, 247.06 448.18, 247.69 447.62 C 248.31 447.07, 248.23 446.88, 248.64 445.75 C 249.04 444.62, 249.50 444.10, 249.70 441.95 C 249.90 439.81, 249.46 438.46, 249.64 435.02 C 249.82 431.58, 249.86 429.42, 250.59 424.74 C 251.33 420.05, 251.93 417.31, 253.29 411.60 C 254.66 405.89, 255.56 402.61, 257.42 396.18 C 259.27 389.75, 260.41 386.19, 262.57 379.46 C 264.74 372.73, 266.02 369.14, 268.23 362.52 C 270.44 355.90, 271.61 352.50, 273.63 346.37 C 275.64 340.24, 276.62 337.17, 278.31 331.88 C 280.00 326.60, 280.90 324.00, 282.09 319.93 C 283.27 315.86, 284.18 314.25, 284.23 311.54 C 284.28 308.82, 283.58 307.51, 282.34 306.35 C 281.10 305.20, 279.54 305.04, 278.04 305.75" style="stroke: black; fill: black;"/><path d="M 323.08,320.07 C 321.74 320.13, 321.07 320.27, 319.86 321.64 C 318.64 323.02, 317.80 323.89, 317.00 326.93 C 316.21 329.98, 316.71 332.26, 315.87 336.87 C 315.02 341.47, 314.34 344.33, 312.77 349.95 C 311.20 355.57, 310.11 358.83, 308.02 364.99 C 305.94 371.14, 304.63 374.49, 302.35 380.71 C 300.08 386.93, 298.85 390.21, 296.65 396.08 C 294.44 401.95, 293.28 404.88, 291.33 410.05 C 289.37 415.22, 288.49 417.74, 286.86 421.92 C 285.22 426.10, 284.24 427.92, 283.14 430.95 C 282.05 433.97, 281.59 435.11, 281.39 437.03 C 281.19 438.94, 281.78 439.57, 282.13 440.53 C 282.47 441.48, 282.65 441.41, 283.12 441.81 C 283.60 442.21, 283.86 442.48, 284.53 442.52 C 285.19 442.56, 285.54 442.64, 286.44 442.01 C 287.33 441.37, 288.08 441.08, 288.99 439.35 C 289.90 437.62, 290.19 436.46, 290.98 433.36 C 291.77 430.27, 291.85 428.18, 292.95 423.88 C 294.05 419.58, 294.79 417.07, 296.47 411.85 C 298.15 406.64, 299.25 403.69, 301.35 397.81 C 303.46 391.92, 304.67 388.64, 307.00 382.43 C 309.33 376.23, 310.67 372.89, 313.00 366.78 C 315.33 360.67, 316.54 357.42, 318.66 351.90 C 320.78 346.38, 321.77 343.56, 323.61 339.18 C 325.45 334.81, 326.94 333.01, 327.86 330.02 C 328.78 327.02, 328.45 325.95, 328.20 324.21 C 327.94 322.47, 327.59 322.14, 326.57 321.31 C 325.55 320.49, 324.42 320.00, 323.08 320.07" style="stroke: black; fill: black;"/><path d="M 250.51,398.94 C 251.23 400.14, 251.75 400.63, 253.54 401.14 C 255.33 401.64, 256.49 401.94, 259.45 401.48 C 262.41 401.02, 264.25 399.82, 268.36 398.83 C 272.47 397.84, 275.05 397.34, 280.00 396.52 C 284.95 395.71, 287.80 395.36, 293.09 394.76 C 298.38 394.16, 301.60 393.81, 306.45 393.51 C 311.30 393.21, 313.81 393.52, 317.36 393.27 C 320.90 393.02, 322.13 392.84, 324.19 392.24 C 326.25 391.65, 326.97 391.23, 327.66 390.29 C 328.36 389.35, 328.39 388.49, 327.65 387.56 C 326.91 386.63, 326.12 386.08, 323.95 385.64 C 321.79 385.19, 320.45 385.12, 316.83 385.35 C 313.21 385.57, 310.72 386.17, 305.84 386.76 C 300.95 387.35, 297.73 387.75, 292.40 388.29 C 287.07 388.82, 284.21 389.11, 279.18 389.44 C 274.16 389.78, 271.55 389.91, 267.26 389.97 C 262.96 390.02, 260.75 389.29, 257.70 389.72 C 254.64 390.16, 253.55 391.07, 251.99 392.16 C 250.44 393.24, 250.22 393.79, 249.92 395.15 C 249.62 396.50, 249.78 397.74, 250.51 398.94" style="stroke: black; fill: black;"/><path d="M 353.96,413.12 C 354.92 414.37, 355.90 414.99, 358.15 415.20 C 360.40 415.40, 361.94 415.19, 365.22 414.15 C 368.50 413.12, 370.61 411.87, 374.54 410.01 C 378.46 408.14, 380.75 406.96, 384.85 404.82 C 388.94 402.68, 391.21 401.51, 395.00 399.33 C 398.80 397.15, 400.83 396.17, 403.83 393.91 C 406.83 391.65, 408.43 390.66, 410.01 388.03 C 411.58 385.41, 412.02 383.59, 411.71 380.77 C 411.40 377.95, 410.71 375.95, 408.45 373.94 C 406.19 371.92, 404.21 370.92, 400.42 370.69 C 396.63 370.46, 394.30 371.35, 389.50 372.78 C 384.70 374.20, 381.87 375.27, 376.41 377.81 C 370.96 380.35, 367.73 382.06, 362.22 385.48 C 356.71 388.90, 353.66 391.02, 348.85 394.89 C 344.05 398.77, 341.66 400.90, 338.19 404.86 C 334.71 408.83, 333.11 410.77, 331.46 414.72 C 329.82 418.68, 329.23 420.99, 329.96 424.65 C 330.68 428.31, 332.10 430.46, 335.08 433.02 C 338.06 435.57, 340.36 436.29, 344.85 437.41 C 349.35 438.52, 352.03 438.56, 357.54 438.59 C 363.05 438.63, 366.22 438.34, 372.39 437.59 C 378.57 436.85, 382.50 436.06, 388.41 434.85 C 394.32 433.63, 397.52 432.92, 401.96 431.54 C 406.40 430.15, 409.11 429.39, 410.62 427.93 C 412.12 426.46, 411.51 424.60, 409.48 424.21 C 407.46 423.82, 404.94 425.01, 400.49 425.99 C 396.04 426.97, 393.00 427.94, 387.25 429.10 C 381.50 430.25, 377.64 431.16, 371.75 431.75 C 365.85 432.34, 362.75 432.39, 357.77 432.06 C 352.79 431.72, 350.36 431.15, 346.86 430.08 C 343.36 429.01, 342.12 428.12, 340.27 426.70 C 338.41 425.29, 338.07 424.89, 337.59 422.99 C 337.10 421.09, 336.80 420.08, 337.83 417.22 C 338.86 414.36, 339.84 412.30, 342.73 408.69 C 345.63 405.07, 347.84 402.83, 352.31 399.14 C 356.78 395.45, 359.78 393.35, 365.09 390.24 C 370.40 387.12, 373.63 385.55, 378.85 383.58 C 384.07 381.60, 386.98 380.95, 391.20 380.36 C 395.41 379.77, 397.35 380.53, 399.92 380.62 C 402.50 380.71, 403.07 380.73, 404.07 380.80 C 405.07 380.86, 405.16 380.55, 404.93 380.95 C 404.70 381.35, 404.21 381.56, 402.92 382.80 C 401.64 384.04, 400.89 385.17, 398.51 387.14 C 396.13 389.11, 394.45 390.54, 391.03 392.66 C 387.60 394.78, 385.35 395.96, 381.40 397.74 C 377.45 399.53, 375.14 400.41, 371.26 401.58 C 367.39 402.74, 365.06 402.70, 362.03 403.57 C 359.00 404.43, 357.84 404.83, 356.11 405.91 C 354.38 406.99, 353.80 407.53, 353.37 408.97 C 352.94 410.41, 353.01 411.88, 353.96 413.12" style="stroke: black; fill: black;"/><path d="M 484.24,322.04 C 482.73 322.21, 481.76 322.44, 480.31 324.49 C 478.87 326.53, 478.74 328.24, 477.01 332.27 C 475.29 336.29, 474.26 339.13, 471.69 344.61 C 469.12 350.08, 467.43 353.45, 464.16 359.64 C 460.88 365.83, 458.80 369.30, 455.30 375.55 C 451.80 381.80, 449.82 385.12, 446.65 390.89 C 443.47 396.66, 441.89 399.54, 439.40 404.41 C 436.92 409.28, 435.64 411.39, 434.23 415.23 C 432.82 419.06, 432.00 420.67, 432.34 423.59 C 432.68 426.52, 433.98 428.68, 435.92 429.86 C 437.85 431.03, 440.86 430.46, 442.01 429.47 C 443.15 428.47, 442.31 425.73, 441.65 424.88 C 440.98 424.02, 439.13 425.43, 438.70 425.20 C 438.27 424.96, 439.09 425.27, 439.49 423.70 C 439.90 422.14, 439.76 420.77, 440.73 417.37 C 441.70 413.97, 442.33 411.56, 444.36 406.72 C 446.40 401.88, 447.89 398.94, 450.90 393.17 C 453.91 387.40, 455.86 384.08, 459.40 377.88 C 462.95 371.67, 465.07 368.21, 468.64 362.14 C 472.20 356.08, 474.10 352.79, 477.23 347.56 C 480.37 342.32, 482.04 339.80, 484.31 335.98 C 486.58 332.15, 487.86 330.89, 488.57 328.42 C 489.28 325.95, 488.71 324.91, 487.85 323.64 C 486.98 322.36, 485.74 321.87, 484.24 322.04" style="stroke: black; fill: black;"/><path d="M 528.01,315.88 C 526.47 315.99, 525.44 316.25, 523.90 318.25 C 522.35 320.24, 522.10 321.95, 520.27 325.85 C 518.43 329.75, 517.37 332.51, 514.72 337.75 C 512.07 343.00, 510.35 346.18, 507.01 352.06 C 503.67 357.94, 501.57 361.21, 498.01 367.15 C 494.45 373.09, 492.46 376.23, 489.20 381.74 C 485.94 387.26, 484.30 389.98, 481.70 394.73 C 479.10 399.48, 477.86 401.61, 476.21 405.49 C 474.55 409.37, 473.53 411.18, 473.42 414.13 C 473.31 417.09, 474.57 418.63, 475.67 420.26 C 476.77 421.89, 477.81 422.23, 478.92 422.30 C 480.04 422.36, 480.79 421.42, 481.26 420.60 C 481.73 419.78, 481.22 419.35, 481.29 418.18 C 481.35 417.01, 481.31 416.81, 481.58 414.73 C 481.84 412.66, 481.58 411.30, 482.59 407.80 C 483.61 404.30, 484.47 401.94, 486.65 397.22 C 488.83 392.51, 490.38 389.73, 493.49 384.22 C 496.59 378.71, 498.55 375.56, 502.17 369.67 C 505.78 363.78, 507.92 360.52, 511.54 354.78 C 515.17 349.03, 517.10 345.93, 520.31 340.95 C 523.51 335.97, 525.20 333.54, 527.55 329.87 C 529.90 326.20, 531.23 325.02, 532.04 322.59 C 532.85 320.15, 532.40 319.04, 531.60 317.70 C 530.79 316.36, 529.55 315.77, 528.01 315.88" style="stroke: black; fill: black;"/><path d="M 578.50,379.88 C 578.62 378.27, 578.12 377.16, 576.60 375.74 C 575.09 374.33, 573.75 373.36, 570.92 372.80 C 568.10 372.25, 565.95 372.14, 562.46 372.96 C 558.98 373.78, 557.23 374.99, 553.51 376.91 C 549.80 378.84, 547.67 380.00, 543.90 382.57 C 540.12 385.14, 538.01 386.72, 534.64 389.76 C 531.27 392.80, 529.51 394.46, 527.06 397.78 C 524.60 401.10, 523.12 402.87, 522.36 406.36 C 521.60 409.86, 521.95 412.08, 523.27 415.27 C 524.58 418.46, 525.90 420.42, 528.93 422.32 C 531.97 424.21, 534.27 424.44, 538.45 424.74 C 542.62 425.04, 545.01 424.67, 549.81 423.81 C 554.61 422.95, 557.35 422.22, 562.43 420.46 C 567.51 418.70, 570.32 417.50, 575.21 415.01 C 580.10 412.52, 582.68 411.00, 586.88 408.01 C 591.09 405.01, 593.14 403.33, 596.23 400.03 C 599.33 396.74, 600.87 395.02, 602.37 391.52 C 603.88 388.03, 604.18 385.92, 603.75 382.57 C 603.31 379.21, 602.29 377.33, 600.20 374.74 C 598.11 372.16, 596.28 371.04, 593.30 369.65 C 590.31 368.26, 588.29 367.86, 585.28 367.79 C 582.26 367.72, 580.41 368.25, 578.21 369.30 C 576.02 370.36, 574.93 371.53, 574.32 373.06 C 573.72 374.60, 574.19 375.81, 575.20 376.98 C 576.22 378.15, 577.51 378.36, 579.39 378.92 C 581.27 379.48, 582.56 379.56, 584.63 379.77 C 586.69 379.97, 587.92 379.69, 589.73 379.96 C 591.54 380.23, 592.52 380.35, 593.67 381.09 C 594.81 381.84, 595.24 382.24, 595.46 383.69 C 595.69 385.15, 595.69 386.05, 594.78 388.38 C 593.87 390.71, 593.25 392.47, 590.92 395.36 C 588.58 398.25, 586.79 400.02, 583.09 402.82 C 579.38 405.63, 576.92 407.13, 572.38 409.38 C 567.84 411.63, 565.11 412.71, 560.39 414.08 C 555.67 415.46, 552.99 415.90, 548.79 416.26 C 544.59 416.62, 542.41 416.36, 539.38 415.90 C 536.34 415.44, 535.32 414.71, 533.61 413.95 C 531.90 413.19, 531.30 413.16, 530.82 412.09 C 530.34 411.02, 530.61 410.50, 531.21 408.60 C 531.81 406.70, 532.09 405.20, 533.85 402.61 C 535.60 400.02, 537.07 398.27, 539.97 395.64 C 542.86 393.02, 544.87 391.52, 548.31 389.47 C 551.75 387.42, 553.95 386.46, 557.16 385.42 C 560.36 384.37, 561.93 384.42, 564.35 384.25 C 566.78 384.08, 567.60 384.50, 569.27 384.58 C 570.94 384.66, 571.35 384.79, 572.70 384.63 C 574.06 384.47, 574.87 384.74, 576.03 383.79 C 577.19 382.84, 578.39 381.49, 578.50 379.88" style="stroke: black; fill: black;"/><path d="M 759.54,383.62 C 758.05 383.96, 757.14 384.40, 755.99 386.39 C 754.84 388.38, 754.79 389.94, 753.81 393.56 C 752.83 397.17, 752.57 399.64, 751.08 404.48 C 749.59 409.32, 748.57 412.24, 746.35 417.74 C 744.14 423.25, 742.69 426.31, 740.03 432.00 C 737.36 437.70, 735.80 440.76, 733.02 446.21 C 730.23 451.66, 728.70 454.48, 726.09 459.26 C 723.49 464.03, 722.19 466.47, 719.97 470.10 C 717.75 473.72, 716.01 475.00, 715.00 477.39 C 713.99 479.78, 714.27 480.93, 714.91 482.05 C 715.55 483.18, 716.73 483.56, 718.21 483.01 C 719.68 482.46, 721.27 481.82, 722.28 479.30 C 723.29 476.77, 722.50 474.51, 723.25 470.37 C 724.00 466.22, 724.49 463.58, 726.02 458.58 C 727.55 453.58, 728.67 450.74, 730.92 445.37 C 733.17 440.00, 734.41 437.13, 737.27 431.71 C 740.14 426.29, 741.73 423.49, 745.23 418.26 C 748.73 413.04, 750.78 410.39, 754.77 405.60 C 758.76 400.81, 760.89 398.38, 765.19 394.33 C 769.49 390.27, 771.85 388.34, 776.28 385.33 C 780.71 382.33, 783.14 381.05, 787.35 379.30 C 791.56 377.54, 793.72 377.02, 797.34 376.56 C 800.96 376.09, 802.72 376.35, 805.43 376.96 C 808.15 377.58, 809.20 378.36, 810.90 379.63 C 812.60 380.90, 813.13 381.62, 813.94 383.29 C 814.76 384.97, 814.96 385.79, 814.98 388.00 C 815.01 390.21, 815.04 391.55, 814.06 394.34 C 813.07 397.13, 812.28 398.89, 810.04 401.95 C 807.81 405.02, 806.21 406.78, 802.87 409.68 C 799.53 412.57, 797.39 414.07, 793.35 416.45 C 789.30 418.83, 786.87 419.96, 782.65 421.57 C 778.44 423.18, 776.04 423.80, 772.27 424.49 C 768.50 425.19, 766.58 424.90, 763.80 425.05 C 761.02 425.19, 760.21 425.14, 758.38 425.20 C 756.56 425.26, 755.74 424.73, 754.68 425.36 C 753.63 425.98, 752.72 426.92, 753.10 428.31 C 753.47 429.70, 754.33 431.19, 756.55 432.30 C 758.76 433.40, 760.68 433.97, 764.17 433.85 C 767.65 433.73, 769.78 432.90, 773.98 431.70 C 778.18 430.51, 780.62 429.76, 785.16 427.87 C 789.71 425.99, 792.27 424.81, 796.72 422.27 C 801.17 419.72, 803.50 418.24, 807.40 415.16 C 811.30 412.07, 813.25 410.35, 816.22 406.85 C 819.19 403.35, 820.56 401.43, 822.23 397.66 C 823.90 393.89, 824.55 391.76, 824.57 388.00 C 824.60 384.25, 824.09 382.04, 822.35 378.86 C 820.62 375.68, 819.02 374.05, 815.88 372.11 C 812.75 370.17, 810.63 369.62, 806.69 369.16 C 802.74 368.71, 800.52 368.90, 796.16 369.83 C 791.80 370.76, 789.49 371.62, 784.89 373.83 C 780.29 376.04, 777.81 377.53, 773.17 380.90 C 768.53 384.26, 766.12 386.35, 761.68 390.65 C 757.24 394.96, 755.08 397.47, 750.97 402.44 C 746.86 407.41, 744.77 410.13, 741.11 415.48 C 737.46 420.84, 735.79 423.72, 732.71 429.23 C 729.63 434.73, 728.32 437.62, 725.71 443.01 C 723.09 448.39, 721.88 451.22, 719.64 456.15 C 717.40 461.08, 716.29 463.59, 714.50 467.67 C 712.71 471.75, 711.01 473.51, 710.70 476.56 C 710.39 479.60, 711.53 481.22, 712.95 482.89 C 714.37 484.55, 715.85 485.10, 717.81 484.87 C 719.77 484.64, 721.12 484.07, 722.76 481.73 C 724.39 479.39, 724.31 477.16, 725.99 473.18 C 727.66 469.20, 728.79 466.75, 731.13 461.83 C 733.48 456.91, 734.96 454.08, 737.70 448.58 C 740.44 443.07, 742.01 440.00, 744.82 434.31 C 747.64 428.62, 749.15 425.57, 751.76 420.12 C 754.37 414.68, 755.67 411.82, 757.87 407.10 C 760.07 402.38, 761.32 400.15, 762.75 396.54 C 764.18 392.92, 764.87 391.41, 765.01 389.04 C 765.14 386.67, 764.52 385.78, 763.42 384.69 C 762.33 383.61, 761.02 383.28, 759.54 383.62" style="stroke: black; fill: black;"/><path d="M 895.27,381.16 C 895.39 379.59, 894.99 378.59, 893.59 377.16 C 892.20 375.73, 891.00 374.71, 888.28 374.00 C 885.55 373.29, 883.49 373.07, 879.96 373.60 C 876.44 374.13, 874.57 375.10, 870.65 376.64 C 866.72 378.18, 864.53 379.10, 860.32 381.31 C 856.12 383.51, 853.73 384.91, 849.64 387.66 C 845.55 390.41, 843.37 392.06, 839.87 395.06 C 836.37 398.05, 834.49 399.52, 832.14 402.63 C 829.78 405.75, 828.64 407.46, 828.10 410.63 C 827.55 413.80, 827.99 415.76, 829.41 418.49 C 830.83 421.21, 832.24 422.84, 835.18 424.26 C 838.12 425.67, 840.25 425.80, 844.11 425.56 C 847.97 425.32, 850.13 424.47, 854.48 423.05 C 858.83 421.63, 861.27 420.61, 865.86 418.45 C 870.46 416.29, 872.96 414.92, 877.44 412.23 C 881.93 409.55, 884.28 407.87, 888.29 405.04 C 892.31 402.21, 894.53 400.74, 897.51 398.08 C 900.50 395.42, 902.41 394.01, 903.22 391.75 C 904.03 389.48, 903.07 387.71, 901.55 386.74 C 900.03 385.78, 897.89 385.64, 895.62 386.92 C 893.35 388.20, 892.26 390.01, 890.20 393.13 C 888.15 396.25, 887.13 398.83, 885.37 402.54 C 883.61 406.25, 882.44 408.22, 881.42 411.67 C 880.40 415.12, 880.05 416.76, 880.26 419.78 C 880.47 422.80, 880.96 424.42, 882.47 426.77 C 883.98 429.13, 885.56 430.31, 887.81 431.54 C 890.07 432.77, 891.67 432.96, 893.76 432.93 C 895.86 432.90, 896.95 432.34, 898.29 431.37 C 899.63 430.40, 900.28 429.51, 900.47 428.10 C 900.65 426.69, 900.02 425.41, 899.23 424.32 C 898.45 423.22, 897.59 423.12, 896.54 422.64 C 895.48 422.15, 895.04 421.98, 893.95 421.89 C 892.86 421.80, 892.11 422.11, 891.09 422.19 C 890.08 422.27, 889.29 422.72, 888.87 422.30 C 888.44 421.89, 888.59 421.58, 888.97 420.11 C 889.35 418.64, 889.68 417.52, 890.77 414.95 C 891.86 412.39, 892.59 410.42, 894.42 407.29 C 896.25 404.16, 898.13 402.24, 899.93 399.31 C 901.72 396.38, 902.98 395.01, 903.40 392.64 C 903.82 390.26, 903.21 388.61, 902.02 387.42 C 900.82 386.23, 899.45 385.74, 897.44 386.68 C 895.43 387.63, 894.63 389.56, 891.98 392.14 C 889.33 394.72, 887.78 396.72, 884.20 399.60 C 880.62 402.48, 878.31 404.06, 874.08 406.53 C 869.84 408.99, 867.38 410.22, 863.04 411.92 C 858.69 413.63, 856.24 414.32, 852.37 415.07 C 848.50 415.82, 846.50 415.64, 843.69 415.68 C 840.88 415.73, 839.90 415.45, 838.33 415.28 C 836.75 415.11, 836.26 415.38, 835.82 414.84 C 835.38 414.31, 835.55 414.08, 836.15 412.63 C 836.75 411.17, 837.10 409.99, 838.83 407.58 C 840.56 405.18, 841.85 403.37, 844.82 400.59 C 847.78 397.82, 849.87 396.17, 853.64 393.70 C 857.41 391.24, 859.75 389.97, 863.67 388.27 C 867.58 386.58, 869.82 385.89, 873.23 385.23 C 876.64 384.56, 878.19 384.80, 880.70 384.93 C 883.22 385.07, 884.02 385.67, 885.81 385.89 C 887.60 386.12, 888.22 386.23, 889.65 386.05 C 891.09 385.88, 891.87 385.99, 892.99 385.01 C 894.11 384.03, 895.15 382.73, 895.27 381.16" style="stroke: black; fill: black;"/><path d="M 972.12,324.44 C 970.68 324.57, 969.92 324.76, 968.57 326.50 C 967.22 328.23, 966.98 329.54, 965.37 333.12 C 963.76 336.69, 962.95 339.37, 960.50 344.39 C 958.05 349.40, 956.38 352.49, 953.13 358.20 C 949.88 363.90, 947.79 367.11, 944.27 372.91 C 940.75 378.71, 938.75 381.78, 935.53 387.18 C 932.30 392.58, 930.68 395.23, 928.14 399.92 C 925.60 404.62, 924.51 406.73, 922.82 410.65 C 921.14 414.57, 920.13 416.31, 919.73 419.52 C 919.33 422.74, 920.12 424.40, 920.85 426.74 C 921.57 429.07, 922.22 429.98, 923.35 431.20 C 924.48 432.42, 925.41 432.66, 926.49 432.86 C 927.58 433.07, 928.14 432.84, 928.76 432.22 C 929.38 431.60, 929.41 430.54, 929.61 429.78 C 929.81 429.01, 929.72 428.96, 929.74 428.40 C 929.77 427.83, 929.92 427.70, 929.72 426.94 C 929.52 426.18, 929.02 425.92, 928.75 424.59 C 928.47 423.25, 928.26 422.61, 928.35 420.27 C 928.43 417.93, 928.21 416.46, 929.17 412.89 C 930.13 409.33, 931.00 407.07, 933.15 402.44 C 935.29 397.81, 936.82 395.12, 939.90 389.74 C 942.97 384.35, 944.94 381.27, 948.53 375.54 C 952.12 369.80, 954.26 366.61, 957.84 361.05 C 961.42 355.49, 963.31 352.50, 966.42 347.75 C 969.52 342.99, 971.29 340.77, 973.36 337.27 C 975.43 333.76, 976.27 332.50, 976.75 330.22 C 977.23 327.95, 976.67 327.04, 975.75 325.89 C 974.82 324.73, 973.55 324.32, 972.12 324.44" style="stroke: black; fill: black;"/></svg>